PathFileType	3	(X/Y/Z)	D:\minhoCalibration\240510\subject2_KPNP\preferred\preferred07.trc
DataRate	CameraRate	NumFrames	NumMarkers	Units	OrigDataRate	OrigDataStartFrame	OrigNumFrames
200.0	200.0	30	10	mm	200.0	300	181	
Frame#	Time	Left_Ankle_Outer1			Left_Ankle_Inner1			Left_Knee_Outer1			Left_Knee_Inner1			Left_Wrist1			Right_Wrist1			Right_Knee_Inner1			Right_Knee_Outer1			Right_Ankle_Inner1			Right_Ankle_Outer1			
		X1	Y1	Z1	X2	Y2	Z2	X3	Y3	Z3	X4	Y4	Z4	X5	Y5	Z5	X6	Y6	Z6	X7	Y7	Z7	X8	Y8	Z8	X9	Y9	Z9	X10	Y10	Z10	
300	1.49	-534.37665	88.358963	-772.42267	-563.65021	92.069298	-721.22864	-337.26138	498.22345	-668.461	-431.89066	483.27554	-630.30762	-402.82983	924.74072	-814.66266	-727.10992	968.45575	-907.33069	-806.03082	459.28705	-920.91309	-859.71429	512.39752	-982.18567	-720.17999	142.12938	-1158.2201	-786.73755	173.01111	-1225.0741
301	1.495	-533.82764	88.319839	-772.9975	-562.79462	92.259651	-722.31	-335.96017	498.09406	-668.26306	-429.24023	483.68268	-629.44531	-398.75095	926.95837	-812.23474	-724.409	970.12805	-899.03534	-813.3894	462.31516	-908.35065	-866.61926	516.25116	-969.65857	-723.48145	149.52997	-1151.2097	-789.6911	181.62512	-1218.0195
302	1.5	-533.50018	88.008675	-773.65265	-562.50958	92.180931	-722.98999	-334.4653	497.6781	-668.84515	-426.31259	483.70139	-628.03131	-394.63385	929.41901	-809.65308	-721.37439	971.94965	-892.88397	-820.59546	465.84369	-894.69	-873.68341	520.31256	-955.82843	-727.43811	157.22163	-1143.4744	-793.20715	190.47591	-1210.1074
303	1.505	-533.1001	87.689766	-774.21558	-562.23987	92.139999	-723.45264	-332.73889	496.94891	-670.14386	-423.23572	482.81934	-627.57788	-390.54123	931.85895	-807.42322	-718.17065	973.92694	-885.63367	-827.64789	470.246	-881.04651	-879.97998	525.35822	-942.16089	-731.86328	165.37985	-1134.9553	-797.00641	200.05403	-1201.3439
304	1.51	-532.86243	87.423065	-774.70496	-561.97144	92.218987	-723.86841	-330.89288	496.02591	-671.74713	-419.69907	482.68356	-625.38293	-385.7637	935.16345	-803.41888	-714.9281	975.91949	-879.27472	-834.47186	475.00259	-866.34869	-885.61749	531.3075	-927.91211	-736.58325	173.95306	-1125.9219	-801.03943	210.2939	-1191.9445
305	1.515	-532.50189	87.27317	-775.08289	-561.52722	92.197334	-724.4873	-328.95209	494.94739	-673.40564	-417.02161	480.39423	-626.93341	-381.73648	937.41888	-802.33752	-711.42249	978.31116	-872.23419	-840.94043	480.4465	-850.26837	-891.2663	537.02191	-912.69318	-741.37451	183.16747	-1116.3741	-805.29437	221.24983	-1182.1392
306	1.52	-532.01599	87.210571	-775.5379	-561.02118	92.437805	-724.83191	-326.87137	493.77386	-675.10352	-413.73572	480.28806	-625.92084	-377.31259	940.05658	-800.1828	-707.91248	980.87079	-865.00806	-846.78033	486.55026	-834.17334	-895.31915	543.95746	-897.86243	-746.10022	192.92801	-1106.3755	-809.53992	232.70235	-1171.5546
307	1.525	-531.53973	87.272003	-775.90454	-560.5202	92.717247	-725.19916	-324.79672	492.66507	-676.65625	-411.06006	479.44037	-626.79755	-373.12482	942.6214	-798.75433	-704.56616	983.46179	-857.7373	-851.88776	492.9725	-817.36255	-900.27924	550.66962	-880.39722	-751.12323	203.39656	-1095.5248	-813.77563	244.45821	-1160.3853
308	1.53	-531.13373	87.364853	-776.2901	-560.09741	93.048134	-725.34326	-322.57965	491.64093	-678.11511	-408.58377	478.9202	-627.91992	-367.77902	945.26495	-797.31714	-701.02563	986.56799	-848.90546	-856.25946	499.7019	-800.25043	-903.77606	557.80035	-864.27521	-754.78845	214.33934	-1084.72	-817.97748	256.89828	-1148.6566
309	1.535	-530.80225	87.411346	-776.68634	-559.65814	93.407349	-725.61401	-320.289	490.83371	-679.70251	-406.30731	478.49252	-629.4458	-363.14133	947.92737	-796.01208	-697.56366	989.3457	-842.70203	-859.67902	506.73807	-782.24078	-907.71265	564.84576	-845.49792	-759.034	225.93767	-1073.3481	-821.97839	269.91461	-1136.5607
310	1.54	-530.43085	87.543976	-777.06464	-559.38904	94.29187	-725.93323	-318.02026	490.07663	-681.36798	-404.1344	478.28149	-631.14575	-358.37848	950.6181	-795.05133	-694.14789	992.49524	-833.75116	-862.36255	514.16815	-764.33618	-909.72827	573.18176	-828.62732	-761.52362	238.37418	-1062.2839	-825.78979	283.51041	-1124.1833
311	1.545	-530.16278	87.618614	-777.47784	-559.01337	94.703148	-725.90485	-316.12329	489.5257	-683.2655	-401.97943	478.17487	-633.08429	-353.52637	953.23816	-794.54572	-690.59863	995.64722	-825.99359	-864.14185	521.64929	-745.90259	-912.53387	580.43359	-808.79651	-763.96466	252.05475	-1051.1796	-829.07794	297.94662	-1111.5137
312	1.55	-529.96576	87.68277	-777.89886	-558.62805	95.062294	-726.22089	-314.17694	489.01651	-685.62952	-399.80777	478.07123	-635.28864	-348.79794	955.75293	-794.58276	-686.81006	999.44977	-817.04309	-865.28583	529.29559	-727.31982	-913.41614	588.72992	-790.08624	-766.24506	266.83823	-1039.2875	-831.7998	313.04205	-1098.4089
313	1.555	-529.745	87.707008	-778.39209	-558.22729	95.494415	-726.45697	-312.31628	488.71393	-688.73883	-397.53857	478.08026	-637.54645	-344.07916	958.04614	-795.1463	-683.04175	1003.1335	-808.72589	-865.66956	537.24597	-708.69659	-914.7851	597.24774	-770.68152	-766.46521	282.71628	-1026.955	-833.5813	328.75433	-1084.9291
314	1.56	-529.52838	87.761452	-778.87177	-557.56061	95.236633	-727.57849	-310.82516	488.4671	-692.35492	-395.07935	478.16653	-639.91217	-339.42728	960.20764	-796.36798	-679.0686	1007.3115	-798.92682	-865.16699	544.92761	-689.8335	-917.10303	605.46301	-748.60303	-766.58533	298.83713	-1014.1951	-834.59094	345.10867	-1070.8632
315	1.565	-529.28601	87.900703	-779.40967	-557.09088	95.716408	-727.90186	-309.64227	488.28607	-696.58026	-392.40329	478.34253	-642.39728	-335.01379	962.04297	-798.02856	-674.95459	1011.6819	-789.52777	-864.06091	552.96533	-670.99664	-917.17401	615.25708	-728.28613	-766.03278	315.21671	-1001.2119	-835.1037	362.02829	-1056.3563
316	1.57	-529.10779	88.167717	-779.9339	-556.70844	96.631386	-728.50568	-308.55722	488.39658	-701.25854	-389.63486	479.16724	-642.94257	-330.83621	963.71808	-800.13336	-670.51935	1016.2684	-779.76276	-862.14252	560.84167	-651.75659	-917.14661	624.85559	-707.0921	-764.96918	332.1936	-988.04871	-835.34955	379.51819	-1041.4436
317	1.575	-528.39661	88.884659	-781.01453	-556.17975	97.176224	-728.77844	-308.04907	488.61069	-706.10645	-386.83514	479.37241	-645.80243	-327.21216	965.30493	-802.64001	-665.83398	1021.0511	-769.98193	-860.09186	569.81567	-632.11951	-916.32922	634.38733	-685.34955	-763.72101	349.73184	-974.71899	-835.26587	397.43622	-1026.2461
318	1.58	-528.34662	89.300903	-781.23102	-555.5318	97.413857	-728.95148	-308.1319	489.02118	-711.20673	-384.18134	479.66275	-648.74579	-323.40198	967.00836	-805.60919	-660.78314	1025.9017	-760.39777	-857.05457	578.96234	-612.03821	-914.36591	645.21368	-663.04944	-762.62878	367.57086	-961.16559	-835.2149	415.74228	-1010.5381
319	1.585	-528.1734	89.648407	-781.75647	-555.69452	96.13269	-734.1593	-307.69885	489.93481	-716.32178	-381.4361	480.01498	-651.95166	-321.1152	967.92426	-808.93274	-655.53235	1030.9524	-750.28979	-853.05603	587.97424	-592.01428	-911.37872	655.53674	-641.28748	-763.1983	385.03201	-946.44293	-835.29932	434.43286	-994.39191
320	1.59	-528.02942	90.065796	-782.19769	-554.54675	98.927597	-730.1748	-308.1741	490.58282	-721.20679	-379.48535	480.50519	-654.85803	-318.42926	968.89447	-812.7254	-649.61725	1036.0048	-740.64819	-848.40594	597.84174	-571.49591	-907.16425	666.49799	-619.48889	-762.70166	403.03625	-931.84052	-835.74786	453.3439	-977.62225
321	1.595	-527.92285	90.618492	-782.64789	-553.99823	99.505753	-730.5202	-308.30222	491.75293	-726.04938	-377.71402	481.19952	-657.84558	-316.06628	969.77545	-816.92694	-643.50903	1041.074	-731.065	-842.83569	607.75653	-550.50311	-902.38525	681.04004	-592.48511	-762.71808	421.38989	-916.71167	-836.61816	472.62375	-960.27979
322	1.6	-527.89294	91.138199	-783.03931	-553.52869	100.22071	-730.69336	-308.56552	492.79132	-730.58746	-376.20093	481.79385	-660.98022	-313.9986	970.66119	-821.47485	-637.02405	1046.1301	-721.82013	-836.0567	618.20526	-529.80682	-896.49561	690.75787	-572.56	-763.06769	439.96082	-901.14801	-837.68872	492.07794	-942.53143
323	1.605	-527.92487	91.692192	-783.33075	-553.28931	100.93845	-730.28619	-308.61276	493.93164	-734.91327	-374.95282	482.67343	-664.09009	-312.8779	971.28796	-826.11194	-629.70837	1051.2653	-712.76703	-828.60748	629.20099	-508.36331	-889.33734	702.74261	-549.72375	-763.6283	458.7825	-885.26892	-839.35266	511.6911	-924.12524
324	1.61	-528.02502	92.336227	-783.58386	-552.85266	101.39105	-729.91931	-308.65219	494.92154	-739.09277	-373.91022	483.64926	-667.16046	-312.41257	971.60809	-830.87878	-622.68079	1056.3744	-704.26013	-820.18237	640.62683	-487.48047	-881.44244	715.13831	-526.28961	-764.48474	477.70676	-869.20892	-840.76727	531.6142	-905.36938
325	1.615	-528.18756	93.035309	-783.76758	-552.13696	102.19694	-730.17999	-308.46954	495.93753	-743.229	-372.90894	484.60663	-670.28143	-312.1355	971.91174	-835.96429	-615.51801	1061.5701	-696.20282	-810.87122	652.13342	-466.61996	-872.42413	727.8783	-502.83789	-765.44122	496.74484	-852.80774	-842.36469	551.61963	-886.02545
326	1.62	-528.3728	93.703194	-783.85077	-551.89923	101.12539	-734.77979	-308.12543	496.86948	-747.41205	-371.84937	485.68118	-673.41986	-312.07852	972.22949	-841.18872	-608.30487	1066.8037	-688.66431	-799.98114	664.61902	-444.95682	-861.84424	741.52008	-479.95883	-766.51788	515.57886	-836.2594	-844.60999	571.75671	-865.60553
327	1.625	-528.65375	94.347336	-783.73993	-552.28418	101.95303	-733.77942	-307.9082	497.673	-751.69373	-370.70703	486.77277	-676.51038	-312.62323	972.34631	-846.43805	-600.99115	1072.0568	-681.60669	-788.76819	676.80212	-424.19064	-850.88904	754.85223	-456.41229	-768.18298	534.68359	-819.05505	-845.64941	592.02533	-846.02795
328	1.63	-528.95837	94.986633	-783.59515	-550.20929	104.64339	-730.81982	-307.49777	498.42325	-756.10156	-369.31479	487.92072	-679.46783	-313.77887	972.09637	-851.90857	-593.68768	1077.2664	-675.07788	-771.05334	691.97247	-403.13043	-838.5144	768.5752	-433.96219	-770.52704	553.68304	-801.40741	-847.39429	612.51703	-825.22473
329	1.635	-529.31305	95.727226	-783.3291	-550.71429	104.24949	-732.94476	-306.9628	499.14307	-760.92395	-367.4375	488.93564	-682.69476	-315.42267	971.91595	-857.15613	-586.36292	1082.429	-669.0108	-763.3689	701.77222	-383.35748	-825.32104	782.56317	-411.04379	-772.68994	572.60059	-783.39557	-849.44958	632.58997	-803.53864
